<?xml version="1.0" encoding="UTF-8"?>
<svg xmlns="http://www.w3.org/2000/svg" width="1600" height="900" viewBox="0 0 1600 900" style="background-color: #0d1117;">
<style>#mermaid-1780560777296{font-family:"trebuchet ms",verdana,arial,sans-serif;font-size:16px;fill:#ccc;}#mermaid-1780560777296 .error-icon{fill:#a44141;}#mermaid-1780560777296 .error-text{fill:#ddd;stroke:#ddd;}#mermaid-1780560777296 .edge-thickness-normal{stroke-width:2px;}#mermaid-1780560777296 .edge-thickness-thick{stroke-width:3.5px;}#mermaid-1780560777296 .edge-pattern-solid{stroke-dasharray:0;}#mermaid-1780560777296 .edge-pattern-dashed{stroke-dasharray:3;}#mermaid-1780560777296 .edge-pattern-dotted{stroke-dasharray:2;}#mermaid-1780560777296 .marker{fill:lightgrey;stroke:lightgrey;}#mermaid-1780560777296 .marker.cross{stroke:lightgrey;}#mermaid-1780560777296 svg{font-family:"trebuchet ms",verdana,arial,sans-serif;font-size:16px;}#mermaid-1780560777296 .label{font-family:"trebuchet ms",verdana,arial,sans-serif;color:#ccc;}#mermaid-1780560777296 .cluster-label text{fill:#F9FFFE;}#mermaid-1780560777296 .cluster-label span,#mermaid-1780560777296 p{color:#F9FFFE;}#mermaid-1780560777296 .label text,#mermaid-1780560777296 span,#mermaid-1780560777296 p{fill:#ccc;color:#ccc;}#mermaid-1780560777296 .node rect,#mermaid-1780560777296 .node circle,#mermaid-1780560777296 .node ellipse,#mermaid-1780560777296 .node polygon,#mermaid-1780560777296 .node path{fill:#1f2020;stroke:#81B1DB;stroke-width:1px;}#mermaid-1780560777296 .flowchart-label text{text-anchor:middle;}#mermaid-1780560777296 .node .katex path{fill:#000;stroke:#000;stroke-width:1px;}#mermaid-1780560777296 .node .label{text-align:center;}#mermaid-1780560777296 .node.clickable{cursor:pointer;}#mermaid-1780560777296 .arrowheadPath{fill:lightgrey;}#mermaid-1780560777296 .edgePath .path{stroke:lightgrey;stroke-width:2.0px;}#mermaid-1780560777296 .flowchart-link{stroke:lightgrey;fill:none;}#mermaid-1780560777296 .edgeLabel{background-color:hsl(0, 0%, 34.4117647059%);text-align:center;}#mermaid-1780560777296 .edgeLabel rect{opacity:0.5;background-color:hsl(0, 0%, 34.4117647059%);fill:hsl(0, 0%, 34.4117647059%);}#mermaid-1780560777296 .labelBkg{background-color:rgba(87.75, 87.75, 87.75, 0.5);}#mermaid-1780560777296 .cluster rect{fill:hsl(180, 1.5873015873%, 28.3529411765%);stroke:rgba(255, 255, 255, 0.25);stroke-width:1px;}#mermaid-1780560777296 .cluster text{fill:#F9FFFE;}#mermaid-1780560777296 .cluster span,#mermaid-1780560777296 p{color:#F9FFFE;}#mermaid-1780560777296 div.mermaidTooltip{position:absolute;text-align:center;max-width:200px;padding:2px;font-family:"trebuchet ms",verdana,arial,sans-serif;font-size:12px;background:hsl(20, 1.5873015873%, 12.3529411765%);border:1px solid rgba(255, 255, 255, 0.25);border-radius:2px;pointer-events:none;z-index:100;}#mermaid-1780560777296 .flowchartTitleText{text-anchor:middle;font-size:18px;fill:#ccc;}#mermaid-1780560777296 :root{--mermaid-font-family:"trebuchet ms",verdana,arial,sans-serif;}</style><g><marker id="mermaid-1780560777296_flowchart-pointEnd" class="marker flowchart" viewBox="0 0 10 10" refX="6" refY="5" markerUnits="userSpaceOnUse" markerWidth="12" markerHeight="12" orient="auto"><path d="M 0 0 L 10 5 L 0 10 z" class="arrowMarkerPath" style="stroke-width: 1; stroke-dasharray: 1, 0;"></path></marker><marker id="mermaid-1780560777296_flowchart-pointStart" class="marker flowchart" viewBox="0 0 10 10" refX="4.5" refY="5" markerUnits="userSpaceOnUse" markerWidth="12" markerHeight="12" orient="auto"><path d="M 0 5 L 10 10 L 10 0 z" class="arrowMarkerPath" style="stroke-width: 1; stroke-dasharray: 1, 0;"></path></marker><marker id="mermaid-1780560777296_flowchart-circleEnd" class="marker flowchart" viewBox="0 0 10 10" refX="11" refY="5" markerUnits="userSpaceOnUse" markerWidth="11" markerHeight="11" orient="auto"><circle cx="5" cy="5" r="5" class="arrowMarkerPath" style="stroke-width: 1; stroke-dasharray: 1, 0;"></circle></marker><marker id="mermaid-1780560777296_flowchart-circleStart" class="marker flowchart" viewBox="0 0 10 10" refX="-1" refY="5" markerUnits="userSpaceOnUse" markerWidth="11" markerHeight="11" orient="auto"><circle cx="5" cy="5" r="5" class="arrowMarkerPath" style="stroke-width: 1; stroke-dasharray: 1, 0;"></circle></marker><marker id="mermaid-1780560777296_flowchart-crossEnd" class="marker cross flowchart" viewBox="0 0 11 11" refX="12" refY="5.2" markerUnits="userSpaceOnUse" markerWidth="11" markerHeight="11" orient="auto"><path d="M 1,1 l 9,9 M 10,1 l -9,9" class="arrowMarkerPath" style="stroke-width: 2; stroke-dasharray: 1, 0;"></path></marker><marker id="mermaid-1780560777296_flowchart-crossStart" class="marker cross flowchart" viewBox="0 0 11 11" refX="-1" refY="5.2" markerUnits="userSpaceOnUse" markerWidth="11" markerHeight="11" orient="auto"><path d="M 1,1 l 9,9 M 10,1 l -9,9" class="arrowMarkerPath" style="stroke-width: 2; stroke-dasharray: 1, 0;"></path></marker><g class="root"><g class="clusters"><g class="cluster default flowchart-label" id="P4"><rect style="fill:#533483;stroke:#e94560;" rx="0" ry="0" x="3077.578125" y="3.87890625" width="1121.40625" height="328.890625"></rect><g class="cluster-label" transform="translate(3590.90625, 3.87890625)"><foreignObject width="94.75" height="21"><div style="color: rgb(238, 238, 238); display: inline-block; white-space: nowrap;" xmlns="http://www.w3.org/1999/xhtml"><span class="nodeLabel" style="color:#eee;">📄 4. INSERT</span></div></foreignObject></g></g><g class="cluster default flowchart-label" id="P3"><rect style="fill:#0f3460;stroke:#533483;" rx="0" ry="0" x="2274.578125" y="53.953125" width="753" height="252.86328125"></rect><g class="cluster-label" transform="translate(2600.2421875, 53.953125)"><foreignObject width="101.671875" height="21"><div style="color: rgb(238, 238, 238); display: inline-block; white-space: nowrap;" xmlns="http://www.w3.org/1999/xhtml"><span class="nodeLabel" style="color:#eee;">🎨 3. RENDER</span></div></foreignObject></g></g><g class="cluster default flowchart-label" id="P2"><rect style="fill:#16213e;stroke:#0f3460;" rx="0" ry="0" x="763.390625" y="0" width="1461.1875" height="385.15234375"></rect><g class="cluster-label" transform="translate(1445.9375, 0)"><foreignObject width="96.09375" height="21"><div style="color: rgb(238, 238, 238); display: inline-block; white-space: nowrap;" xmlns="http://www.w3.org/1999/xhtml"><span class="nodeLabel" style="color:#eee;">📦 2. GROUP</span></div></foreignObject></g></g><g class="cluster default flowchart-label" id="P1"><rect style="fill:#1a1a2e;stroke:#e94560;" rx="0" ry="0" x="0" y="4.99609375" width="713.390625" height="241.15625"></rect><g class="cluster-label" transform="translate(312.6796875, 4.99609375)"><foreignObject width="88.03125" height="21"><div style="color: rgb(238, 238, 238); display: inline-block; white-space: nowrap;" xmlns="http://www.w3.org/1999/xhtml"><span class="nodeLabel" style="color:#eee;">🔍 1. PARSE</span></div></foreignObject></g></g></g><g class="edgePaths"><path d="M135.453,125.824L139.62,125.824C143.786,125.824,152.12,125.824,159.653,125.89C167.187,125.956,173.92,126.088,177.287,126.154L180.654,126.22" id="L-A-B-0" class=" edge-thickness-normal edge-pattern-solid flowchart-link LS-A LE-B" style="fill:none;" marker-end="url(#mermaid-1780560777296_flowchart-pointEnd)"></path><path d="M303.663,106.722L313.129,102.822C322.596,98.922,341.528,91.123,372.265,87.224C403.002,83.324,445.542,83.324,466.813,83.324L488.083,83.324" id="L-B-X-0" class=" edge-thickness-normal edge-pattern-solid flowchart-link LS-B LE-X" style="fill:none;" marker-end="url(#mermaid-1780560777296_flowchart-pointEnd)"></path><path d="M303.663,145.927L313.129,149.66C322.596,153.393,341.528,160.858,356.394,164.591C371.259,168.324,382.058,168.324,387.457,168.324L392.856,168.324" id="L-B-C-0" class=" edge-thickness-normal edge-pattern-solid flowchart-link LS-B LE-C" style="fill:none;" marker-end="url(#mermaid-1780560777296_flowchart-pointEnd)"></path><path d="M688.391,168.324L692.557,168.324C696.724,168.324,705.057,168.324,713.391,168.324C721.724,168.324,730.057,168.324,738.391,168.324C746.724,168.324,755.057,168.324,762.591,168.39C770.124,168.456,776.858,168.588,780.225,168.654L783.592,168.72" id="L-C-D-0" class=" edge-thickness-normal edge-pattern-solid flowchart-link LS-C LE-D" style="fill:none;" marker-end="url(#mermaid-1780560777296_flowchart-pointEnd)"></path><path d="M993.239,155.829L1010.327,153.414C1027.415,150.998,1061.59,146.167,1092.8,143.751C1124.009,141.336,1152.253,141.336,1166.375,141.336L1180.497,141.336" id="L-D-E-0" class=" edge-thickness-normal edge-pattern-solid flowchart-link LS-D LE-E" style="fill:none;" marker-end="url(#mermaid-1780560777296_flowchart-pointEnd)"></path><path d="M965.639,209.42L987.326,222.319C1009.014,235.219,1052.39,261.018,1115.509,273.917C1178.628,286.816,1261.49,286.816,1343.148,286.816C1424.807,286.816,1505.263,286.816,1573.286,286.816C1641.31,286.816,1696.901,286.816,1744.973,286.816C1793.044,286.816,1833.596,286.816,1859.272,286.816C1884.947,286.816,1895.745,286.816,1901.145,286.816L1906.544,286.816" id="L-D-F-0" class=" edge-thickness-normal edge-pattern-solid flowchart-link LS-D LE-F" style="fill:none;" marker-end="url(#mermaid-1780560777296_flowchart-pointEnd)"></path><path d="M1502.906,141.336L1516.708,141.336C1530.51,141.336,1558.115,141.336,1584.919,141.414C1611.723,141.492,1637.727,141.648,1650.729,141.726L1663.731,141.804" id="L-E-G-0" class=" edge-thickness-normal edge-pattern-solid flowchart-link LS-E LE-G" style="fill:none;" marker-end="url(#mermaid-1780560777296_flowchart-pointEnd)"></path><path d="M1815.027,119.91L1824.88,116.314C1834.734,112.718,1854.441,105.527,1881.891,101.932C1909.34,98.336,1944.532,98.336,1962.128,98.336L1979.723,98.336" id="L-G-H-0" class=" edge-thickness-normal edge-pattern-solid flowchart-link LS-G LE-H" style="fill:none;" marker-end="url(#mermaid-1780560777296_flowchart-pointEnd)"></path><path d="M1815.027,163.762L1824.88,167.191C1834.734,170.62,1854.441,177.478,1884.388,180.907C1914.335,184.336,1954.521,184.336,1974.615,184.336L1994.708,184.336" id="L-G-I-0" class=" edge-thickness-normal edge-pattern-solid flowchart-link LS-G LE-I" style="fill:none;" marker-end="url(#mermaid-1780560777296_flowchart-pointEnd)"></path><path d="M2126.398,98.336L2142.762,98.336C2159.125,98.336,2191.852,98.336,2212.382,98.336C2232.911,98.336,2241.245,98.336,2249.578,98.336C2257.911,98.336,2266.245,98.336,2280.668,106.613C2295.09,114.889,2315.602,131.442,2325.858,139.719L2336.115,147.996" id="L-H-J-0" class=" edge-thickness-normal edge-pattern-solid flowchart-link LS-H LE-J" style="fill:none;" marker-end="url(#mermaid-1780560777296_flowchart-pointEnd)"></path><path d="M2111.414,184.336L2130.275,184.336C2149.135,184.336,2186.857,184.336,2209.884,184.336C2232.911,184.336,2241.245,184.336,2249.578,184.336C2257.911,184.336,2266.245,184.336,2273.709,183.727C2281.174,183.118,2287.77,181.9,2291.068,181.291L2294.366,180.683" id="L-I-J-0" class=" edge-thickness-normal edge-pattern-solid flowchart-link LS-I LE-J" style="fill:none;" marker-end="url(#mermaid-1780560777296_flowchart-pointEnd)"></path><path d="M2199.578,286.816L2203.745,286.816C2207.911,286.816,2216.245,286.816,2224.578,286.816C2232.911,286.816,2241.245,286.816,2249.578,286.816C2257.911,286.816,2266.245,286.816,2282.27,270.614C2298.296,254.411,2322.014,222.006,2333.873,205.804L2345.732,189.601" id="L-F-J-0" class=" edge-thickness-normal edge-pattern-solid flowchart-link LS-F LE-J" style="fill:none;" marker-end="url(#mermaid-1780560777296_flowchart-pointEnd)"></path><path d="M2423.031,168.324L2427.198,168.324C2431.365,168.324,2439.698,168.324,2447.148,168.324C2454.598,168.324,2461.165,168.324,2464.448,168.324L2467.731,168.324" id="L-J-K-0" class=" edge-thickness-normal edge-pattern-solid flowchart-link LS-J LE-K" style="fill:none;" marker-end="url(#mermaid-1780560777296_flowchart-pointEnd)"></path><path d="M2665.688,168.324L2669.854,168.324C2674.021,168.324,2682.354,168.324,2689.804,168.324C2697.254,168.324,2703.821,168.324,2707.104,168.324L2710.388,168.324" id="L-K-L-0" class=" edge-thickness-normal edge-pattern-solid flowchart-link LS-K LE-L" style="fill:none;" marker-end="url(#mermaid-1780560777296_flowchart-pointEnd)"></path><path d="M2835.656,168.324L2839.823,168.324C2843.99,168.324,2852.323,168.324,2859.773,168.324C2867.223,168.324,2873.79,168.324,2877.073,168.324L2880.356,168.324" id="L-L-M-0" class=" edge-thickness-normal edge-pattern-solid flowchart-link LS-L LE-M" style="fill:none;" marker-end="url(#mermaid-1780560777296_flowchart-pointEnd)"></path><path d="M3002.578,168.324L3006.745,168.324C3010.911,168.324,3019.245,168.324,3027.578,168.324C3035.911,168.324,3044.245,168.324,3052.578,168.324C3060.911,168.324,3069.245,168.324,3076.695,168.324C3084.145,168.324,3090.711,168.324,3093.995,168.324L3097.278,168.324" id="L-M-N-0" class=" edge-thickness-normal edge-pattern-solid flowchart-link LS-M LE-N" style="fill:none;" marker-end="url(#mermaid-1780560777296_flowchart-pointEnd)"></path><path d="M3233.563,168.324L3237.729,168.324C3241.896,168.324,3250.229,168.324,3257.763,168.39C3265.296,168.456,3272.03,168.588,3275.397,168.654L3278.764,168.72" id="L-N-O-0" class=" edge-thickness-normal edge-pattern-solid flowchart-link LS-N LE-O" style="fill:none;" marker-end="url(#mermaid-1780560777296_flowchart-pointEnd)"></path><path d="M3391.405,146.244L3410.535,135.924C3429.666,125.604,3467.927,104.964,3502.696,94.644C3537.465,84.324,3568.743,84.324,3584.382,84.324L3600.02,84.324" id="L-O-P-0" class=" edge-thickness-normal edge-pattern-solid flowchart-link LS-O LE-P" style="fill:none;" marker-end="url(#mermaid-1780560777296_flowchart-pointEnd)"></path><path d="M3413.984,168.824L3429.352,168.741C3444.719,168.658,3475.453,168.491,3505.388,168.408C3535.322,168.324,3564.456,168.324,3579.023,168.324L3593.591,168.324" id="L-O-Q-0" class=" edge-thickness-normal edge-pattern-solid flowchart-link LS-O LE-Q" style="fill:none;" marker-end="url(#mermaid-1780560777296_flowchart-pointEnd)"></path><path d="M3391.405,191.404L3410.535,201.557C3429.666,211.711,3467.927,232.017,3502.842,242.171C3537.757,252.324,3569.326,252.324,3585.111,252.324L3600.895,252.324" id="L-O-R-0" class=" edge-thickness-normal edge-pattern-solid flowchart-link LS-O LE-R" style="fill:none;" marker-end="url(#mermaid-1780560777296_flowchart-pointEnd)"></path><path d="M3763.805,84.324L3769.043,84.324C3774.281,84.324,3784.758,84.324,3799.229,92.179C3813.701,100.034,3832.168,115.743,3841.401,123.598L3850.635,131.453" id="L-P-S-0" class=" edge-thickness-normal edge-pattern-solid flowchart-link LS-P LE-S" style="fill:none;" marker-end="url(#mermaid-1780560777296_flowchart-pointEnd)"></path><path d="M3770.234,168.324L3774.401,168.324C3778.568,168.324,3786.901,168.324,3794.435,168.39C3801.968,168.456,3808.702,168.588,3812.069,168.654L3815.435,168.72" id="L-Q-S-0" class=" edge-thickness-normal edge-pattern-solid flowchart-link LS-Q LE-S" style="fill:none;" marker-end="url(#mermaid-1780560777296_flowchart-pointEnd)"></path><path d="M3762.93,252.324L3768.314,252.324C3773.698,252.324,3784.466,252.324,3799.078,244.629C3813.69,236.935,3832.146,221.545,3841.373,213.851L3850.601,206.156" id="L-R-S-0" class=" edge-thickness-normal edge-pattern-solid flowchart-link LS-R LE-S" style="fill:none;" marker-end="url(#mermaid-1780560777296_flowchart-pointEnd)"></path><path d="M3936.889,137.198L3948.36,128.469C3959.83,119.74,3982.77,102.282,3999.64,93.553C4016.509,84.824,4027.308,84.824,4032.707,84.824L4038.106,84.824" id="L-S-T-0" class=" edge-thickness-normal edge-pattern-solid flowchart-link LS-S LE-T" style="fill:none;" marker-end="url(#mermaid-1780560777296_flowchart-pointEnd)"></path><path d="M3936.889,200.451L3948.36,209.013C3959.83,217.575,3982.77,234.7,4004.602,243.262C4026.434,251.824,4047.157,251.824,4057.518,251.824L4067.88,251.824" id="L-S-U-0" class=" edge-thickness-normal edge-pattern-solid flowchart-link LS-S LE-U" style="fill:none;" marker-end="url(#mermaid-1780560777296_flowchart-pointEnd)"></path></g><g class="edgeLabels"><g class="edgeLabel"><g class="label" transform="translate(0, 0)"><foreignObject width="0" height="0"><div xmlns="http://www.w3.org/1999/xhtml" style="display: inline-block; white-space: nowrap;"><span class="edgeLabel"></span></div></foreignObject></g></g><g class="edgeLabel" transform="translate(360.4609375, 83.32421875)"><g class="label" transform="translate(-10.5, -9.5)"><foreignObject width="21" height="19"><div xmlns="http://www.w3.org/1999/xhtml" style="display: inline-block; white-space: nowrap;"><span class="edgeLabel">NO</span></div></foreignObject></g></g><g class="edgeLabel" transform="translate(360.4609375, 168.32421875)"><g class="label" transform="translate(-12.6953125, -9.5)"><foreignObject width="25.390625" height="19"><div xmlns="http://www.w3.org/1999/xhtml" style="display: inline-block; white-space: nowrap;"><span class="edgeLabel">YES</span></div></foreignObject></g></g><g class="edgeLabel"><g class="label" transform="translate(0, 0)"><foreignObject width="0" height="0"><div xmlns="http://www.w3.org/1999/xhtml" style="display: inline-block; white-space: nowrap;"><span class="edgeLabel"></span></div></foreignObject></g></g><g class="edgeLabel" transform="translate(1095.765625, 141.3359375)"><g class="label" transform="translate(-65.03125, -9.5)"><foreignObject width="130.0625" height="19"><div xmlns="http://www.w3.org/1999/xhtml" style="display: inline-block; white-space: nowrap;"><span class="edgeLabel">YES (system-view)</span></div></foreignObject></g></g><g class="edgeLabel" transform="translate(1585.71875, 286.81640625)"><g class="label" transform="translate(-57.8125, -9.5)"><foreignObject width="115.625" height="19"><div xmlns="http://www.w3.org/1999/xhtml" style="display: inline-block; white-space: nowrap;"><span class="edgeLabel">NO (standalone)</span></div></foreignObject></g></g><g class="edgeLabel"><g class="label" transform="translate(0, 0)"><foreignObject width="0" height="0"><div xmlns="http://www.w3.org/1999/xhtml" style="display: inline-block; white-space: nowrap;"><span class="edgeLabel"></span></div></foreignObject></g></g><g class="edgeLabel" transform="translate(1874.1484375, 98.3359375)"><g class="label" transform="translate(-12.6953125, -9.5)"><foreignObject width="25.390625" height="19"><div xmlns="http://www.w3.org/1999/xhtml" style="display: inline-block; white-space: nowrap;"><span class="edgeLabel">YES</span></div></foreignObject></g></g><g class="edgeLabel" transform="translate(1874.1484375, 184.3359375)"><g class="label" transform="translate(-10.5, -9.5)"><foreignObject width="21" height="19"><div xmlns="http://www.w3.org/1999/xhtml" style="display: inline-block; white-space: nowrap;"><span class="edgeLabel">NO</span></div></foreignObject></g></g><g class="edgeLabel"><g class="label" transform="translate(0, 0)"><foreignObject width="0" height="0"><div xmlns="http://www.w3.org/1999/xhtml" style="display: inline-block; white-space: nowrap;"><span class="edgeLabel"></span></div></foreignObject></g></g><g class="edgeLabel"><g class="label" transform="translate(0, 0)"><foreignObject width="0" height="0"><div xmlns="http://www.w3.org/1999/xhtml" style="display: inline-block; white-space: nowrap;"><span class="edgeLabel"></span></div></foreignObject></g></g><g class="edgeLabel"><g class="label" transform="translate(0, 0)"><foreignObject width="0" height="0"><div xmlns="http://www.w3.org/1999/xhtml" style="display: inline-block; white-space: nowrap;"><span class="edgeLabel"></span></div></foreignObject></g></g><g class="edgeLabel"><g class="label" transform="translate(0, 0)"><foreignObject width="0" height="0"><div xmlns="http://www.w3.org/1999/xhtml" style="display: inline-block; white-space: nowrap;"><span class="edgeLabel"></span></div></foreignObject></g></g><g class="edgeLabel"><g class="label" transform="translate(0, 0)"><foreignObject width="0" height="0"><div xmlns="http://www.w3.org/1999/xhtml" style="display: inline-block; white-space: nowrap;"><span class="edgeLabel"></span></div></foreignObject></g></g><g class="edgeLabel"><g class="label" transform="translate(0, 0)"><foreignObject width="0" height="0"><div xmlns="http://www.w3.org/1999/xhtml" style="display: inline-block; white-space: nowrap;"><span class="edgeLabel"></span></div></foreignObject></g></g><g class="edgeLabel"><g class="label" transform="translate(0, 0)"><foreignObject width="0" height="0"><div xmlns="http://www.w3.org/1999/xhtml" style="display: inline-block; white-space: nowrap;"><span class="edgeLabel"></span></div></foreignObject></g></g><g class="edgeLabel"><g class="label" transform="translate(0, 0)"><foreignObject width="0" height="0"><div xmlns="http://www.w3.org/1999/xhtml" style="display: inline-block; white-space: nowrap;"><span class="edgeLabel"></span></div></foreignObject></g></g><g class="edgeLabel" transform="translate(3506.1875, 84.32421875)"><g class="label" transform="translate(-27.078125, -9.5)"><foreignObject width="54.15625" height="19"><div xmlns="http://www.w3.org/1999/xhtml" style="display: inline-block; white-space: nowrap;"><span class="edgeLabel">NESTED</span></div></foreignObject></g></g><g class="edgeLabel" transform="translate(3506.1875, 168.32421875)"><g class="label" transform="translate(-67.703125, -9.5)"><foreignObject width="135.40625" height="19"><div xmlns="http://www.w3.org/1999/xhtml" style="display: inline-block; white-space: nowrap;"><span class="edgeLabel">STANDALONE POOL</span></div></foreignObject></g></g><g class="edgeLabel" transform="translate(3506.1875, 252.32421875)"><g class="label" transform="translate(-37.765625, -9.5)"><foreignObject width="75.53125" height="19"><div xmlns="http://www.w3.org/1999/xhtml" style="display: inline-block; white-space: nowrap;"><span class="edgeLabel">USERNAME</span></div></foreignObject></g></g><g class="edgeLabel"><g class="label" transform="translate(0, 0)"><foreignObject width="0" height="0"><div xmlns="http://www.w3.org/1999/xhtml" style="display: inline-block; white-space: nowrap;"><span class="edgeLabel"></span></div></foreignObject></g></g><g class="edgeLabel"><g class="label" transform="translate(0, 0)"><foreignObject width="0" height="0"><div xmlns="http://www.w3.org/1999/xhtml" style="display: inline-block; white-space: nowrap;"><span class="edgeLabel"></span></div></foreignObject></g></g><g class="edgeLabel"><g class="label" transform="translate(0, 0)"><foreignObject width="0" height="0"><div xmlns="http://www.w3.org/1999/xhtml" style="display: inline-block; white-space: nowrap;"><span class="edgeLabel"></span></div></foreignObject></g></g><g class="edgeLabel" transform="translate(4005.7109375, 84.82421875)"><g class="label" transform="translate(-12.6953125, -9.5)"><foreignObject width="25.390625" height="19"><div xmlns="http://www.w3.org/1999/xhtml" style="display: inline-block; white-space: nowrap;"><span class="edgeLabel">YES</span></div></foreignObject></g></g><g class="edgeLabel" transform="translate(4005.7109375, 251.82421875)"><g class="label" transform="translate(-10.5, -9.5)"><foreignObject width="21" height="19"><div xmlns="http://www.w3.org/1999/xhtml" style="display: inline-block; white-space: nowrap;"><span class="edgeLabel">NO</span></div></foreignObject></g></g></g><g class="nodes"><g class="node default default flowchart-label" id="flowchart-N-31" data-node="true" data-id="N" transform="translate(3168.0703125, 168.32421875)"><rect class="basic label-container" style="" rx="0" ry="0" x="-65.4921875" y="-17" width="130.984375" height="34"></rect><g class="label" style="" transform="translate(-57.9921875, -9.5)"><rect></rect><foreignObject width="115.984375" height="19"><div xmlns="http://www.w3.org/1999/xhtml" style="display: inline-block; white-space: nowrap;"><span class="nodeLabel">Read DOCX cells</span></div></foreignObject></g></g><g class="node default default flowchart-label" id="flowchart-O-33" data-node="true" data-id="O" transform="translate(3348.5234375, 168.32421875)"><polygon points="64.9609375,0 129.921875,-64.9609375 64.9609375,-129.921875 0,-64.9609375" class="label-container" transform="translate(-64.9609375,64.9609375)" style=""></polygon><g class="label" style="" transform="translate(-40.4609375, -9.5)"><rect></rect><foreignObject width="80.921875" height="19"><div xmlns="http://www.w3.org/1999/xhtml" style="display: inline-block; white-space: nowrap;"><span class="nodeLabel">Block type?</span></div></foreignObject></g></g><g class="node default default flowchart-label" id="flowchart-P-35" data-node="true" data-id="P" transform="translate(3684.5625, 84.32421875)"><rect class="basic label-container" style="" rx="0" ry="0" x="-79.2421875" y="-17" width="158.484375" height="34"></rect><g class="label" style="" transform="translate(-71.7421875, -9.5)"><rect></rect><foreignObject width="143.484375" height="19"><div xmlns="http://www.w3.org/1999/xhtml" style="display: inline-block; white-space: nowrap;"><span class="nodeLabel">Match full sequence</span></div></foreignObject></g></g><g class="node default default flowchart-label" id="flowchart-Q-37" data-node="true" data-id="Q" transform="translate(3684.5625, 168.32421875)"><rect class="basic label-container" style="" rx="0" ry="0" x="-85.671875" y="-17" width="171.34375" height="34"></rect><g class="label" style="" transform="translate(-78.171875, -9.5)"><rect></rect><foreignObject width="156.34375" height="19"><div xmlns="http://www.w3.org/1999/xhtml" style="display: inline-block; white-space: nowrap;"><span class="nodeLabel">Try each - skip [error]</span></div></foreignObject></g></g><g class="node default default flowchart-label" id="flowchart-R-39" data-node="true" data-id="R" transform="translate(3684.5625, 252.32421875)"><rect class="basic label-container" style="" rx="0" ry="0" x="-78.3671875" y="-17" width="156.734375" height="34"></rect><g class="label" style="" transform="translate(-70.8671875, -9.5)"><rect></rect><foreignObject width="141.734375" height="19"><div xmlns="http://www.w3.org/1999/xhtml" style="display: inline-block; white-space: nowrap;"><span class="nodeLabel">Match with user tag</span></div></foreignObject></g></g><g class="node default default flowchart-label" id="flowchart-S-41" data-node="true" data-id="S" transform="translate(3894.125, 168.32421875)"><polygon points="73.890625,0 147.78125,-73.890625 73.890625,-147.78125 0,-73.890625" class="label-container" transform="translate(-73.890625,73.890625)" style=""></polygon><g class="label" style="" transform="translate(-49.390625, -9.5)"><rect></rect><foreignObject width="98.78125" height="19"><div xmlns="http://www.w3.org/1999/xhtml" style="display: inline-block; white-space: nowrap;"><span class="nodeLabel">Found match?</span></div></foreignObject></g></g><g class="node default default flowchart-label" id="flowchart-T-47" data-node="true" data-id="T" transform="translate(4108.6953125, 84.82421875)"><rect class="basic label-container" style="fill:#22c55e;" rx="0" ry="0" x="-65.2890625" y="-18" width="130.578125" height="36"></rect><g class="label" style="color:#000;" transform="translate(-57.7890625, -10.5)"><rect></rect><foreignObject width="115.578125" height="21"><div style="color: rgb(0, 0, 0); display: inline-block; white-space: nowrap;" xmlns="http://www.w3.org/1999/xhtml"><span class="nodeLabel" style="color:#000;">✅ Insert image</span></div></foreignObject></g></g><g class="node default default flowchart-label" id="flowchart-U-49" data-node="true" data-id="U" transform="translate(4108.6953125, 251.82421875)"><rect class="basic label-container" style="fill:#ef4444;" rx="0" ry="0" x="-35.515625" y="-18" width="71.03125" height="36"></rect><g class="label" style="color:#fff;" transform="translate(-28.015625, -10.5)"><rect></rect><foreignObject width="56.03125" height="21"><div style="color: rgb(255, 255, 255); display: inline-block; white-space: nowrap;" xmlns="http://www.w3.org/1999/xhtml"><span class="nodeLabel" style="color:#fff;">⛔ Skip</span></div></foreignObject></g></g><g class="node default default flowchart-label" id="flowchart-J-19" data-node="true" data-id="J" transform="translate(2361.3046875, 168.32421875)"><rect class="basic label-container" style="" rx="0" ry="0" x="-61.7265625" y="-17" width="123.453125" height="34"></rect><g class="label" style="" transform="translate(-54.2265625, -9.5)"><rect></rect><foreignObject width="108.453125" height="19"><div xmlns="http://www.w3.org/1999/xhtml" style="display: inline-block; white-space: nowrap;"><span class="nodeLabel">Jinja2 → HTML</span></div></foreignObject></g></g><g class="node default default flowchart-label" id="flowchart-K-25" data-node="true" data-id="K" transform="translate(2569.359375, 168.32421875)"><rect class="basic label-container" style="" rx="0" ry="0" x="-96.328125" y="-17" width="192.65625" height="34"></rect><g class="label" style="" transform="translate(-88.828125, -9.5)"><rect></rect><foreignObject width="177.65625" height="19"><div xmlns="http://www.w3.org/1999/xhtml" style="display: inline-block; white-space: nowrap;"><span class="nodeLabel">Playwright set_content()</span></div></foreignObject></g></g><g class="node default default flowchart-label" id="flowchart-L-27" data-node="true" data-id="L" transform="translate(2775.671875, 168.32421875)"><rect class="basic label-container" style="" rx="0" ry="0" x="-59.984375" y="-18" width="119.96875" height="36"></rect><g class="label" style="" transform="translate(-52.484375, -10.5)"><rect></rect><foreignObject width="104.96875" height="21"><div xmlns="http://www.w3.org/1999/xhtml" style="display: inline-block; white-space: nowrap;"><span class="nodeLabel">📸 Screenshot</span></div></foreignObject></g></g><g class="node default default flowchart-label" id="flowchart-M-29" data-node="true" data-id="M" transform="translate(2944.1171875, 168.32421875)"><rect class="basic label-container" style="" rx="0" ry="0" x="-58.4609375" y="-18" width="116.921875" height="36"></rect><g class="label" style="" transform="translate(-50.9609375, -10.5)"><rect></rect><foreignObject width="101.921875" height="21"><div xmlns="http://www.w3.org/1999/xhtml" style="display: inline-block; white-space: nowrap;"><span class="nodeLabel">🖼️ PNG saved</span></div></foreignObject></g></g><g class="node default default flowchart-label" id="flowchart-D-7" data-node="true" data-id="D" transform="translate(897.0625, 168.32421875)"><polygon points="108.671875,0 217.34375,-108.671875 108.671875,-217.34375 0,-108.671875" class="label-container" transform="translate(-108.671875,108.671875)" style=""></polygon><g class="label" style="" transform="translate(-84.171875, -9.5)"><rect></rect><foreignObject width="168.34375" height="19"><div xmlns="http://www.w3.org/1999/xhtml" style="display: inline-block; white-space: nowrap;"><span class="nodeLabel">Command goes deeper?</span></div></foreignObject></g></g><g class="node default default flowchart-label" id="flowchart-E-9" data-node="true" data-id="E" transform="translate(1344.3515625, 141.3359375)"><rect class="basic label-container" style="" rx="0" ry="0" x="-158.5546875" y="-18" width="317.109375" height="36"></rect><g class="label" style="" transform="translate(-151.0546875, -10.5)"><rect></rect><foreignObject width="302.109375" height="21"><div xmlns="http://www.w3.org/1999/xhtml" style="display: inline-block; white-space: nowrap;"><span class="nodeLabel">📎 Nested Block - All commands → 1 PNG</span></div></foreignObject></g></g><g class="node default default flowchart-label" id="flowchart-F-11" data-node="true" data-id="F" transform="translate(2055.7109375, 286.81640625)"><rect class="basic label-container" style="" rx="0" ry="0" x="-143.8671875" y="-18" width="287.734375" height="36"></rect><g class="label" style="" transform="translate(-136.3671875, -10.5)"><rect></rect><foreignObject width="272.734375" height="21"><div xmlns="http://www.w3.org/1999/xhtml" style="display: inline-block; white-space: nowrap;"><span class="nodeLabel">📄 Standalone - 1 command → 1 PNG</span></div></foreignObject></g></g><g class="node default default flowchart-label" id="flowchart-G-13" data-node="true" data-id="G" transform="translate(1752.4921875, 141.3359375)"><polygon points="83.9609375,0 167.921875,-83.9609375 83.9609375,-167.921875 0,-83.9609375" class="label-container" transform="translate(-83.9609375,83.9609375)" style=""></polygon><g class="label" style="" transform="translate(-59.4609375, -9.5)"><rect></rect><foreignObject width="118.921875" height="19"><div xmlns="http://www.w3.org/1999/xhtml" style="display: inline-block; white-space: nowrap;"><span class="nodeLabel">EOF before quit?</span></div></foreignObject></g></g><g class="node default default flowchart-label" id="flowchart-H-15" data-node="true" data-id="H" transform="translate(2055.7109375, 98.3359375)"><rect class="basic label-container" style="" rx="0" ry="0" x="-70.6875" y="-18" width="141.375" height="36"></rect><g class="label" style="" transform="translate(-63.1875, -10.5)"><rect></rect><foreignObject width="126.375" height="21"><div xmlns="http://www.w3.org/1999/xhtml" style="display: inline-block; white-space: nowrap;"><span class="nodeLabel">✂️ Truncate here</span></div></foreignObject></g></g><g class="node default default flowchart-label" id="flowchart-I-17" data-node="true" data-id="I" transform="translate(2055.7109375, 184.3359375)"><rect class="basic label-container" style="" rx="0" ry="0" x="-55.703125" y="-18" width="111.40625" height="36"></rect><g class="label" style="" transform="translate(-48.203125, -10.5)"><rect></rect><foreignObject width="96.40625" height="21"><div xmlns="http://www.w3.org/1999/xhtml" style="display: inline-block; white-space: nowrap;"><span class="nodeLabel">✅ Full block</span></div></foreignObject></g></g><g class="node default default flowchart-label" id="flowchart-B-1" data-node="true" data-id="B" transform="translate(254.109375, 125.82421875)"><polygon points="68.65625,0 137.3125,-68.65625 68.65625,-137.3125 0,-68.65625" class="label-container" transform="translate(-68.65625,68.65625)" style=""></polygon><g class="label" style="" transform="translate(-44.15625, -9.5)"><rect></rect><foreignObject width="88.3125" height="19"><div xmlns="http://www.w3.org/1999/xhtml" style="display: inline-block; white-space: nowrap;"><span class="nodeLabel">Has  prompt?</span></div></foreignObject></g></g><g class="node default default flowchart-label" id="flowchart-A-0" data-node="true" data-id="A" transform="translate(80.2265625, 125.82421875)"><rect class="basic label-container" style="" rx="0" ry="0" x="-55.2265625" y="-18" width="110.453125" height="36"></rect><g class="label" style="" transform="translate(-47.7265625, -10.5)"><rect></rect><foreignObject width="95.453125" height="21"><div xmlns="http://www.w3.org/1999/xhtml" style="display: inline-block; white-space: nowrap;"><span class="nodeLabel">📁 logs/*.txt</span></div></foreignObject></g></g><g class="node default default flowchart-label" id="flowchart-X-3" data-node="true" data-id="X" transform="translate(543.2734375, 83.32421875)"><rect class="basic label-container" style="fill:#ef4444;" rx="0" ry="0" x="-49.890625" y="-18" width="99.78125" height="36"></rect><g class="label" style="color:#fff;" transform="translate(-42.390625, -10.5)"><rect></rect><foreignObject width="84.78125" height="21"><div style="color: rgb(255, 255, 255); display: inline-block; white-space: nowrap;" xmlns="http://www.w3.org/1999/xhtml"><span class="nodeLabel" style="color:#fff;">⛔ Skip file</span></div></foreignObject></g></g><g class="node default default flowchart-label" id="flowchart-C-5" data-node="true" data-id="C" transform="translate(543.2734375, 168.32421875)"><rect class="basic label-container" style="" rx="0" ry="0" x="-145.1171875" y="-17" width="290.234375" height="34"></rect><g class="label" style="" transform="translate(-137.6171875, -9.5)"><rect></rect><foreignObject width="275.234375" height="19"><div xmlns="http://www.w3.org/1999/xhtml" style="display: inline-block; white-space: nowrap;"><span class="nodeLabel">Split into prompt + command + output</span></div></foreignObject></g></g></g></g></g>
</svg>